<mxfile host="app.diagrams.net" modified="2024-06-02T14:44:03.939Z" agent="Mozilla/5.0 (X11; Linux x86_64) AppleWebKit/537.36 (KHTML, like Gecko) Chrome/123.0.0.0 Safari/537.36" etag="fqH7aVWe0Uo1uO4LgsM5" version="24.4.10" type="device">
  <diagram name="Page-1" id="jKPMpDvtSiW0gNNPwZlF">
    <mxGraphModel dx="1195" dy="661" grid="1" gridSize="10" guides="1" tooltips="1" connect="1" arrows="1" fold="1" page="1" pageScale="1" pageWidth="850" pageHeight="1100" math="0" shadow="0">
      <root>
        <mxCell id="0" />
        <mxCell id="1" parent="0" />
        <mxCell id="YH-1uMUEmos6KEdYke3F-1" value="Članovi vlade" style="shape=umlActor;verticalLabelPosition=bottom;verticalAlign=top;html=1;outlineConnect=0;" vertex="1" parent="1">
          <mxGeometry x="50" y="350" width="30" height="60" as="geometry" />
        </mxCell>
        <mxCell id="YH-1uMUEmos6KEdYke3F-2" value="Građani" style="shape=umlActor;verticalLabelPosition=bottom;verticalAlign=top;html=1;outlineConnect=0;strokeColor=default;" vertex="1" parent="1">
          <mxGeometry x="50" y="650" width="30" height="60" as="geometry" />
        </mxCell>
        <mxCell id="YH-1uMUEmos6KEdYke3F-3" value="Tajnik/Tajnica" style="shape=umlActor;verticalLabelPosition=bottom;verticalAlign=top;html=1;outlineConnect=0;" vertex="1" parent="1">
          <mxGeometry x="780" y="350" width="30" height="60" as="geometry" />
        </mxCell>
        <mxCell id="YH-1uMUEmos6KEdYke3F-4" value="Administrator&amp;nbsp;&lt;div&gt;sustava&lt;/div&gt;" style="shape=umlActor;verticalLabelPosition=bottom;verticalAlign=top;html=1;outlineConnect=0;" vertex="1" parent="1">
          <mxGeometry x="780" y="650" width="30" height="60" as="geometry" />
        </mxCell>
        <mxCell id="YH-1uMUEmos6KEdYke3F-6" value="" style="rounded=1;whiteSpace=wrap;html=1;rotation=90;" vertex="1" parent="1">
          <mxGeometry x="17.5" y="242.5" width="855" height="545" as="geometry" />
        </mxCell>
        <mxCell id="YH-1uMUEmos6KEdYke3F-7" value="Autentifikacija i prijava na sustav" style="ellipse;whiteSpace=wrap;html=1;" vertex="1" parent="1">
          <mxGeometry x="360" y="170" width="110" height="60" as="geometry" />
        </mxCell>
        <mxCell id="YH-1uMUEmos6KEdYke3F-9" value="" style="endArrow=none;html=1;rounded=0;entryX=0;entryY=0.5;entryDx=0;entryDy=0;" edge="1" parent="1" source="YH-1uMUEmos6KEdYke3F-1" target="YH-1uMUEmos6KEdYke3F-7">
          <mxGeometry width="50" height="50" relative="1" as="geometry">
            <mxPoint x="390" y="560" as="sourcePoint" />
            <mxPoint x="440" y="510" as="targetPoint" />
          </mxGeometry>
        </mxCell>
        <mxCell id="YH-1uMUEmos6KEdYke3F-10" value="&lt;font style=&quot;font-size: 18px;&quot;&gt;Vlada&lt;/font&gt;" style="text;strokeColor=none;align=center;fillColor=none;html=1;verticalAlign=middle;whiteSpace=wrap;rounded=0;" vertex="1" parent="1">
          <mxGeometry x="397.5" y="110" width="105" height="50" as="geometry" />
        </mxCell>
        <mxCell id="YH-1uMUEmos6KEdYke3F-11" value="Kreiranje agende za sjednicu" style="ellipse;whiteSpace=wrap;html=1;" vertex="1" parent="1">
          <mxGeometry x="270" y="255" width="120" height="65" as="geometry" />
        </mxCell>
        <mxCell id="YH-1uMUEmos6KEdYke3F-12" value="Upravljanje dokumentima, koncesijama, natječajima, proračunom, zakonima" style="ellipse;whiteSpace=wrap;html=1;" vertex="1" parent="1">
          <mxGeometry x="250" y="490" width="155" height="90" as="geometry" />
        </mxCell>
        <mxCell id="YH-1uMUEmos6KEdYke3F-13" value="Upravljanje agendom za sjednicu" style="ellipse;whiteSpace=wrap;html=1;" vertex="1" parent="1">
          <mxGeometry x="270" y="360" width="120" height="80" as="geometry" />
        </mxCell>
        <mxCell id="YH-1uMUEmos6KEdYke3F-14" value="Vođenje zapisnika tijekom sjednice" style="ellipse;whiteSpace=wrap;html=1;" vertex="1" parent="1">
          <mxGeometry x="502.5" y="340" width="120" height="80" as="geometry" />
        </mxCell>
        <mxCell id="YH-1uMUEmos6KEdYke3F-15" value="Arhiviranje zapisnika" style="ellipse;whiteSpace=wrap;html=1;" vertex="1" parent="1">
          <mxGeometry x="502.5" y="495" width="120" height="80" as="geometry" />
        </mxCell>
        <mxCell id="YH-1uMUEmos6KEdYke3F-18" value="Pregledavanje dokumenata, koncesija, natječaja, proračuna, zakona, ministarstava" style="ellipse;whiteSpace=wrap;html=1;" vertex="1" parent="1">
          <mxGeometry x="250" y="650" width="150" height="110" as="geometry" />
        </mxCell>
        <mxCell id="YH-1uMUEmos6KEdYke3F-19" value="Upravljanje korisnicima" style="ellipse;whiteSpace=wrap;html=1;" vertex="1" parent="1">
          <mxGeometry x="500" y="650" width="120" height="80" as="geometry" />
        </mxCell>
        <mxCell id="YH-1uMUEmos6KEdYke3F-20" value="Ažuriranje web sadržaja" style="ellipse;whiteSpace=wrap;html=1;" vertex="1" parent="1">
          <mxGeometry x="500" y="770" width="120" height="80" as="geometry" />
        </mxCell>
        <mxCell id="YH-1uMUEmos6KEdYke3F-21" value="" style="endArrow=none;html=1;rounded=0;" edge="1" parent="1" source="YH-1uMUEmos6KEdYke3F-1" target="YH-1uMUEmos6KEdYke3F-11">
          <mxGeometry width="50" height="50" relative="1" as="geometry">
            <mxPoint x="80" y="343" as="sourcePoint" />
            <mxPoint x="370" y="210" as="targetPoint" />
          </mxGeometry>
        </mxCell>
        <mxCell id="YH-1uMUEmos6KEdYke3F-22" value="" style="endArrow=none;html=1;rounded=0;" edge="1" parent="1" source="YH-1uMUEmos6KEdYke3F-1" target="YH-1uMUEmos6KEdYke3F-13">
          <mxGeometry width="50" height="50" relative="1" as="geometry">
            <mxPoint x="90" y="353" as="sourcePoint" />
            <mxPoint x="380" y="220" as="targetPoint" />
          </mxGeometry>
        </mxCell>
        <mxCell id="YH-1uMUEmos6KEdYke3F-24" value="" style="endArrow=none;html=1;rounded=0;" edge="1" parent="1" source="YH-1uMUEmos6KEdYke3F-1" target="YH-1uMUEmos6KEdYke3F-12">
          <mxGeometry width="50" height="50" relative="1" as="geometry">
            <mxPoint x="110" y="373" as="sourcePoint" />
            <mxPoint x="400" y="240" as="targetPoint" />
          </mxGeometry>
        </mxCell>
        <mxCell id="YH-1uMUEmos6KEdYke3F-25" value="" style="endArrow=none;html=1;rounded=0;" edge="1" parent="1" source="YH-1uMUEmos6KEdYke3F-7" target="YH-1uMUEmos6KEdYke3F-3">
          <mxGeometry width="50" height="50" relative="1" as="geometry">
            <mxPoint x="80" y="343" as="sourcePoint" />
            <mxPoint x="370" y="210" as="targetPoint" />
          </mxGeometry>
        </mxCell>
        <mxCell id="YH-1uMUEmos6KEdYke3F-26" value="" style="endArrow=none;html=1;rounded=0;" edge="1" parent="1" source="YH-1uMUEmos6KEdYke3F-14" target="YH-1uMUEmos6KEdYke3F-3">
          <mxGeometry width="50" height="50" relative="1" as="geometry">
            <mxPoint x="90" y="353" as="sourcePoint" />
            <mxPoint x="380" y="220" as="targetPoint" />
          </mxGeometry>
        </mxCell>
        <mxCell id="YH-1uMUEmos6KEdYke3F-27" value="" style="endArrow=none;html=1;rounded=0;" edge="1" parent="1" source="YH-1uMUEmos6KEdYke3F-15" target="YH-1uMUEmos6KEdYke3F-3">
          <mxGeometry width="50" height="50" relative="1" as="geometry">
            <mxPoint x="100" y="363" as="sourcePoint" />
            <mxPoint x="390" y="230" as="targetPoint" />
          </mxGeometry>
        </mxCell>
        <mxCell id="YH-1uMUEmos6KEdYke3F-28" value="" style="endArrow=none;html=1;rounded=0;" edge="1" parent="1" source="YH-1uMUEmos6KEdYke3F-2" target="YH-1uMUEmos6KEdYke3F-18">
          <mxGeometry width="50" height="50" relative="1" as="geometry">
            <mxPoint x="622" y="477" as="sourcePoint" />
            <mxPoint x="790" y="397" as="targetPoint" />
          </mxGeometry>
        </mxCell>
        <mxCell id="YH-1uMUEmos6KEdYke3F-29" value="" style="endArrow=none;html=1;rounded=0;" edge="1" parent="1" source="YH-1uMUEmos6KEdYke3F-19" target="YH-1uMUEmos6KEdYke3F-4">
          <mxGeometry width="50" height="50" relative="1" as="geometry">
            <mxPoint x="90" y="790" as="sourcePoint" />
            <mxPoint x="290" y="794" as="targetPoint" />
          </mxGeometry>
        </mxCell>
        <mxCell id="YH-1uMUEmos6KEdYke3F-30" value="" style="endArrow=none;html=1;rounded=0;" edge="1" parent="1" source="YH-1uMUEmos6KEdYke3F-20" target="YH-1uMUEmos6KEdYke3F-4">
          <mxGeometry width="50" height="50" relative="1" as="geometry">
            <mxPoint x="100" y="800" as="sourcePoint" />
            <mxPoint x="300" y="804" as="targetPoint" />
          </mxGeometry>
        </mxCell>
        <mxCell id="YH-1uMUEmos6KEdYke3F-31" value="" style="endArrow=none;dashed=1;html=1;rounded=0;" edge="1" parent="1" source="YH-1uMUEmos6KEdYke3F-13" target="YH-1uMUEmos6KEdYke3F-11">
          <mxGeometry width="50" height="50" relative="1" as="geometry">
            <mxPoint x="340" y="480" as="sourcePoint" />
            <mxPoint x="390" y="430" as="targetPoint" />
          </mxGeometry>
        </mxCell>
        <mxCell id="YH-1uMUEmos6KEdYke3F-34" value="" style="endArrow=none;dashed=1;html=1;rounded=0;" edge="1" parent="1" source="YH-1uMUEmos6KEdYke3F-13" target="YH-1uMUEmos6KEdYke3F-12">
          <mxGeometry width="50" height="50" relative="1" as="geometry">
            <mxPoint x="360" y="370" as="sourcePoint" />
            <mxPoint x="330" y="480" as="targetPoint" />
          </mxGeometry>
        </mxCell>
        <mxCell id="YH-1uMUEmos6KEdYke3F-35" value="" style="endArrow=none;dashed=1;html=1;rounded=0;" edge="1" parent="1" source="YH-1uMUEmos6KEdYke3F-14" target="YH-1uMUEmos6KEdYke3F-15">
          <mxGeometry width="50" height="50" relative="1" as="geometry">
            <mxPoint x="340" y="450" as="sourcePoint" />
            <mxPoint x="340" y="490" as="targetPoint" />
          </mxGeometry>
        </mxCell>
        <mxCell id="YH-1uMUEmos6KEdYke3F-36" value="" style="endArrow=none;dashed=1;html=1;rounded=0;" edge="1" parent="1" source="YH-1uMUEmos6KEdYke3F-7" target="YH-1uMUEmos6KEdYke3F-11">
          <mxGeometry width="50" height="50" relative="1" as="geometry">
            <mxPoint x="573" y="430" as="sourcePoint" />
            <mxPoint x="573" y="480" as="targetPoint" />
          </mxGeometry>
        </mxCell>
        <mxCell id="YH-1uMUEmos6KEdYke3F-37" value="" style="endArrow=none;dashed=1;html=1;rounded=0;" edge="1" parent="1" source="YH-1uMUEmos6KEdYke3F-7" target="YH-1uMUEmos6KEdYke3F-14">
          <mxGeometry width="50" height="50" relative="1" as="geometry">
            <mxPoint x="583" y="440" as="sourcePoint" />
            <mxPoint x="583" y="490" as="targetPoint" />
          </mxGeometry>
        </mxCell>
        <mxCell id="YH-1uMUEmos6KEdYke3F-38" value="&lt;font style=&quot;font-size: 10px;&quot;&gt;&amp;lt;&amp;lt;include&amp;gt;&amp;gt;&lt;/font&gt;" style="text;strokeColor=none;align=center;fillColor=none;html=1;verticalAlign=middle;whiteSpace=wrap;rounded=0;" vertex="1" parent="1">
          <mxGeometry x="337.5" y="320" width="60" height="30" as="geometry" />
        </mxCell>
        <mxCell id="YH-1uMUEmos6KEdYke3F-40" value="&lt;font style=&quot;font-size: 10px;&quot;&gt;&amp;lt;&amp;lt;include&amp;gt;&amp;gt;&lt;/font&gt;" style="text;strokeColor=none;align=center;fillColor=none;html=1;verticalAlign=middle;whiteSpace=wrap;rounded=0;" vertex="1" parent="1">
          <mxGeometry x="337.5" y="440" width="60" height="30" as="geometry" />
        </mxCell>
        <mxCell id="YH-1uMUEmos6KEdYke3F-41" value="&lt;font style=&quot;font-size: 10px;&quot;&gt;&amp;lt;&amp;lt;include&amp;gt;&amp;gt;&lt;/font&gt;" style="text;strokeColor=none;align=center;fillColor=none;html=1;verticalAlign=middle;whiteSpace=wrap;rounded=0;" vertex="1" parent="1">
          <mxGeometry x="490" y="270" width="60" height="30" as="geometry" />
        </mxCell>
        <mxCell id="YH-1uMUEmos6KEdYke3F-42" value="&lt;font style=&quot;font-size: 10px;&quot;&gt;&amp;lt;&amp;lt;include&amp;gt;&amp;gt;&lt;/font&gt;" style="text;strokeColor=none;align=center;fillColor=none;html=1;verticalAlign=middle;whiteSpace=wrap;rounded=0;" vertex="1" parent="1">
          <mxGeometry x="370" y="230" width="60" height="30" as="geometry" />
        </mxCell>
        <mxCell id="YH-1uMUEmos6KEdYke3F-43" value="&lt;font style=&quot;font-size: 10px;&quot;&gt;&amp;lt;&amp;lt;include&amp;gt;&amp;gt;&lt;/font&gt;" style="text;strokeColor=none;align=center;fillColor=none;html=1;verticalAlign=middle;whiteSpace=wrap;rounded=0;" vertex="1" parent="1">
          <mxGeometry x="560" y="440" width="60" height="30" as="geometry" />
        </mxCell>
      </root>
    </mxGraphModel>
  </diagram>
</mxfile>
